HIERARCHY
ROOT Hips
{
  OFFSET 0.0 0.0 0.0
  CHANNELS 6 XPOSITION YPOSITION ZPOSITION ZROTATION XROTATION YROTATION 
  JOINT RightUpLeg
  {
    OFFSET -0.089458038 -0.086670642 0.001016508
    CHANNELS 3 ZROTATION XROTATION YROTATION 
    JOINT RightLeg
    {
      OFFSET 1.524e-006 -0.44256706 0.04075049
      CHANNELS 3 ZROTATION XROTATION YROTATION 
      JOINT RightFoot
      {
        OFFSET 0.001562862 -0.419119812 -0.041630854
        CHANNELS 3 ZROTATION XROTATION YROTATION 
        End Site
        {
          OFFSET 7.5692e-005 -0.04415155 0.084991702
        }
      }
    }
  }
  JOINT Spine
  {
    OFFSET 0.0 0.11890502 0.0
    CHANNELS 3 ZROTATION XROTATION YROTATION 
    JOINT Spine1
    {
      OFFSET 0.0 0.256575052 0.001270508
      CHANNELS 3 ZROTATION XROTATION YROTATION 
      End Site
      {
        OFFSET -0.002899918 0.215084406 0.0252476
      }
      JOINT RightArm
      {
        OFFSET -0.16272758 -0.05365633 0.001021842
        CHANNELS 3 ZROTATION XROTATION YROTATION 
        JOINT RightForeArm
        {
          OFFSET -0.263648698 -0.000263906 -0.014099794
          CHANNELS 3 ZROTATION XROTATION YROTATION 
          End Site
          {
            OFFSET -0.220319092 0.001914652 0.010174732
          }
        }
      }
      JOINT LeftArm
      {
        OFFSET 0.16272758 -0.05365633 0.001020826
        CHANNELS 3 ZROTATION XROTATION YROTATION 
        JOINT LeftForeArm
        {
          OFFSET 0.26260552 -0.000263144 -0.01410081
          CHANNELS 3 ZROTATION XROTATION YROTATION 
          End Site
          {
            OFFSET 0.220897958 0.001915922 0.01017524
          }
        }
      }
    }
  }
  JOINT LeftUpLeg
  {
    OFFSET 0.089458038 -0.086670642 0.001016508
    CHANNELS 3 ZROTATION XROTATION YROTATION 
    JOINT LeftLeg
    {
      OFFSET -3.048e-006 -0.442569346 0.040725598
      CHANNELS 3 ZROTATION XROTATION YROTATION 
      JOINT LeftFoot
      {
        OFFSET -0.002532888 -0.41911778 -0.041605708
        CHANNELS 3 ZROTATION XROTATION YROTATION 
        End Site
        {
          OFFSET -0.00040005 -0.044151042 0.084991194
        }
      }
    }
  }
}
MOTION
Frames: 13
Frame Time: 0.033333
-0.05680202 0.945195412768 1.09074712 0.555872757807 3.11504095967 177.501207622 2.68085074333 -21.4291038039 2.32092346629 -0.483409359911 -3.16451863658 -9.68731364889 3.70609906346 -30.0653828207 -0.339128764049 -2.4173373494 8.9061679654 -1.32173872115 6.5301931744 -0.568968845127 -2.69753305349 75.2933826176 -11.1855250348 2.52859942343 9.64191765034 21.0268176146 2.83930152712 -82.2768480628 -6.6510230628 -21.7943891509 -18.0428240794 42.7387441841 7.13146667987 -2.99451117271 17.5722359985 3.85881782444 -1.86697287235 11.3025270291 0.530998436149 2.73163597458 -44.9811567603 0.357820964095 
-0.05182616 0.942759552768 1.04567228 0.353552549431 3.39675638086 177.91563618 3.18433450946 -20.7970824943 2.45836693607 -0.331808402084 -2.09268287678 -8.10924454494 3.81564249115 -31.1855577502 -0.304853193927 -2.61345961467 8.58165970152 -1.37651406353 6.97580111915 -0.115459438721 -2.82580571365 75.0850823385 -13.0073098025 1.17756345961 10.0315953104 19.8283038304 0.534488929619 -83.0376764948 -7.99582925377 -21.2330466389 -17.5907082451 43.9789323676 7.24716453488 -2.55131940738 19.8989245713 6.39901128054 -1.77745321144 12.8464443334 -2.91184560663 1.19295326319 -42.8017595094 0.188903395649 
-0.04619244 0.940653892768 0.99762056 0.758146622281 4.00156792432 178.464960974 4.48778347812 -19.9765667467 2.90289656471 -0.46416941071 1.96921098583 -7.96953729433 1.14270142704 -28.233372406 -0.110552681514 -1.804798941 8.27189098587 -1.55589062595 6.9504816079 0.291109599337 -2.9657383605 74.8999773818 -15.2271042073 -0.452183762738 10.037707476 17.0501380459 -1.42399892602 -83.6521544635 -9.89760065928 -19.9561308207 -16.9535694163 44.9682681934 7.34947735355 -1.10014475947 21.5927551364 10.5672067923 -1.13723535471 16.3393407495 -8.36939876646 -1.92805141212 -39.6169925636 0.0742544615928 
-0.04076446 0.938487272768 0.95033338 1.83746666858 4.68803011043 178.832097302 6.06757976616 -19.1869490673 3.22766715055 -0.435325255041 6.6555587353 -9.01284015231 -1.09591388417 -23.8500319118 0.161708850726 0.173024112963 8.31788121087 -1.67805699027 6.37614295343 0.119046715438 -2.90600622178 74.7064508018 -17.1532107231 -1.92168652959 9.7840043681 14.4500079722 -3.00742087057 -83.9995447148 -12.0481548751 -18.1640462768 -16.2219673637 45.5749495011 7.42029616996 1.81249400287 21.0775761654 12.3052927144 -0.86622267987 23.5587294663 -11.3377690977 -5.34720270261 -33.9228209469 0.313212224893 
-0.03633978 0.937059792768 0.90692224 3.28447191288 5.20754027512 178.639882119 7.37919209154 -18.4405784382 2.98911318883 0.178182133086 10.9199476431 -9.86180534539 -0.218345526376 -22.0401052063 0.0611702337216 2.75844468051 9.06985515641 -1.54522475195 5.46198189718 -0.783957960516 -2.49203336538 74.7013691411 -18.1645978146 -2.43285596608 9.67088960526 14.0537289343 -4.24209474349 -84.0668903801 -13.9995672418 -16.2960083219 -15.509115888 45.8812629948 7.46262968244 5.22850938276 17.8003079677 12.1153528375 -0.939840006209 33.9080028515 -10.692988141 -7.14431042372 -23.4101301632 1.04666533877 
-0.03247644 0.934288652768 0.8685276 4.53087514159 5.58757584252 178.307156284 8.35805894489 -18.0783496009 2.1718661136 1.01544208947 15.7373722723 -9.60017580301 1.55240648242 -24.1900711721 -0.210591914306 4.80186631201 10.4787216916 -1.28513637772 4.77114924376 -1.89327294264 -1.97727978712 75.085102829 -18.1701729565 -1.49677896722 9.87557159166 15.8269997221 -4.9821248226 -83.7595455278 -15.0364445993 -14.8122590077 -15.1626886933 46.0491524597 7.48497635385 7.98365871044 12.3129630168 11.1614247124 -0.665987840306 45.3623598632 -7.39492201719 -7.56519265679 -11.5808657755 1.814143707 
-0.02800604 0.933257412768 0.83241896 5.0369302605 6.09218680331 178.59697487 8.9188644333 -17.0220608457 1.42169331029 1.44238590199 19.637705694 -9.03258110656 1.32977571937 -27.9515297725 -0.154299989787 5.43414418055 11.9433311082 -1.08202554827 4.65804216488 -2.43518143205 -1.65779747525 75.7584365378 -17.2761097319 0.480187645057 10.1628920368 17.6999844416 -4.7517199169 -83.0659944591 -14.7571342585 -14.1542966397 -15.478876933 46.7008105631 7.54473880154 9.34252826091 6.01032997431 9.1607863186 -0.116677426868 55.4680550421 -3.15385649784 -6.63776780005 -6.16572360812 1.85060880632 
-0.0228346 0.937656692768 0.79317596 4.6827375676 6.72556433231 179.344784962 8.89369177111 -14.4901216732 1.16682053254 1.40220251172 21.3371301841 -9.1902415094 0.0974983690707 -31.4327149755 -0.0253148788642 4.9156922683 12.7064561913 -0.78143874129 4.70007173394 -2.11201252557 -1.35181844737 76.3926947343 -15.6076772252 2.63288360545 10.2834943946 18.2106179217 -3.24920081601 -82.1500182801 -13.6471320419 -14.3225284678 -16.2604366967 48.1386473457 7.68291950487 9.05557152331 -0.187167713846 6.81613648268 0.683127186172 62.8818702163 0.0892883816367 -3.61890273408 -9.08311084604 0.901302904973 
-0.01811782 0.943160872768 0.75125072 3.8693576601 7.14882347121 179.595357282 8.34535479303 -11.5710251805 0.579068934002 1.18065924285 22.1892833679 -8.70893686161 0.0936508781545 -34.6782125483 -0.0345347337793 4.25513442838 12.7831583619 -0.149300504758 4.16826167922 -1.52209901208 -0.660232979043 76.758150836 -13.5755738575 4.63126526201 10.2707065729 18.1086346596 -1.05422219603 -81.2347456105 -12.6546526215 -14.622892013 -16.9527924823 49.3217692986 7.80375665034 7.78699536612 -5.9985022211 5.27214788825 1.59997618867 67.0337577977 2.36532289755 -0.112227865449 -15.5837083839 -0.0566837532621 
-0.01464818 0.945759292768 0.7087616 3.07185666176 7.26171710668 178.917420026 7.56917551085 -9.10253334272 -0.221387988785 1.18449439407 23.4757238849 -7.04076347524 0.691221547308 -37.9466015002 -0.0565570612572 4.06624383934 12.6070427879 0.717704752041 2.95036787355 -1.21236828935 0.414392779628 76.8234815954 -11.7081659875 6.84213346332 10.1881330009 18.7061959573 0.824876396534 -80.4904462363 -12.3188156351 -14.3704243156 -17.1589105159 48.9103972502 7.75206150984 6.41648589265 -11.3229347806 4.74098285952 2.33565874565 68.0628828905 4.16334223547 2.24809636082 -20.6087451506 -0.446044783376 
-0.01175258 0.947466172768 0.66572384 2.40512347706 7.32632813491 177.733884846 6.86457831871 -6.41618451055 -0.917346379003 1.21320349342 24.31880487 -4.92394996701 0.0650553973999 -40.7321985305 -0.067039013735 4.03599165085 12.4620062822 1.58034302334 1.68057818384 -1.08621352144 1.52827467703 76.5688043319 -10.1800545947 9.53043871781 10.0347585418 19.8799281077 2.13041028043 -80.0203994478 -12.5585697892 -13.6759101902 -16.9458273968 47.1454183121 7.56396151519 5.06124573395 -15.8151442213 4.45184088827 2.62385921801 66.2015129077 5.81076337271 4.03731884198 -24.2791675747 -0.592616934385 
-0.00865632 0.950100152768 0.62239906 1.8041671485 7.4795420846 176.545869063 6.22214993529 -3.0608989039 -1.53809488823 1.12600641699 23.8804518668 -3.11357652443 -1.30177920085 -42.7934266786 -0.143634409274 3.74883470333 12.3548243924 2.32609797492 0.841292275956 -0.854116543092 2.45327268217 75.9698991945 -8.85701280149 12.4020184383 9.76038472018 20.5193396819 3.50097396854 -79.8710983427 -13.0625019999 -13.1017550971 -16.6006894004 45.5337429698 7.40952154655 3.66463469256 -19.2355953821 3.92567854622 2.52958169001 61.3722481456 7.60639918805 5.25329272416 -28.1429167957 -0.550596596755 
-0.00547624 0.951222832768 0.57914794 1.33797738918 7.4998123785 175.572853974 5.66311517342 0.278316254815 -2.08142459059 1.00084384078 23.0541253357 -1.77184786729 -1.97252448135 -44.6376802073 -0.232164906717 3.38455360758 12.0469877666 2.88222777195 0.310020819003 -0.450928341952 3.1252969156 75.1155313218 -7.4784501081 15.0057258235 9.29747377182 19.8163424616 5.417795269 -79.9484502351 -13.5866105894 -12.8442911163 -16.3222550313 45.0537070297 7.36903816156 2.64412652371 -21.6193177421 3.65934044218 2.26333045744 53.5837970954 9.35952518666 4.9713625789 -30.9631258097 -0.357318971871 
